<svg version="1.1" xmlns="http://www.w3.org/2000/svg" width="48" height="48" viewBox="0 0 48 48">
<path d="M10.286 37.714c0 2.839-2.304 5.143-5.143 5.143s-5.143-2.304-5.143-5.143 2.304-5.143 5.143-5.143 5.143 2.304 5.143 5.143zM10.286 24c0 2.839-2.304 5.143-5.143 5.143s-5.143-2.304-5.143-5.143 2.304-5.143 5.143-5.143 5.143 2.304 5.143 5.143zM48 35.143v5.143c0 0.455-0.402 0.857-0.857 0.857h-32.571c-0.455 0-0.857-0.402-0.857-0.857v-5.143c0-0.455 0.402-0.857 0.857-0.857h32.571c0.455 0 0.857 0.402 0.857 0.857zM10.286 10.286c0 2.839-2.304 5.143-5.143 5.143s-5.143-2.304-5.143-5.143 2.304-5.143 5.143-5.143 5.143 2.304 5.143 5.143zM48 21.429v5.143c0 0.455-0.402 0.857-0.857 0.857h-32.571c-0.455 0-0.857-0.402-0.857-0.857v-5.143c0-0.455 0.402-0.857 0.857-0.857h32.571c0.455 0 0.857 0.402 0.857 0.857zM48 7.714v5.143c0 0.455-0.402 0.857-0.857 0.857h-32.571c-0.455 0-0.857-0.402-0.857-0.857v-5.143c0-0.455 0.402-0.857 0.857-0.857h32.571c0.455 0 0.857 0.402 0.857 0.857z"></path>
</svg>
